<svg id="SvgjsSvg2056" width="871.125" height="1443.828125" xmlns="http://www.w3.org/2000/svg" version="1.1" xmlns:xlink="http://www.w3.org/1999/xlink" xmlns:svgjs="http://svgjs.com/svgjs"><defs id="SvgjsDefs2057"><marker id="SvgjsMarker2074" markerWidth="16" markerHeight="12" refX="16" refY="6" viewBox="0 0 16 12" orient="auto" markerUnits="userSpaceOnUse" stroke-dasharray="0,0"><path id="SvgjsPath2075" d="M0,2 L14,6 L0,11 L0,2" fill="#323232" stroke="#323232" stroke-width="2"></path></marker><marker id="SvgjsMarker2092" markerWidth="16" markerHeight="12" refX="16" refY="6" viewBox="0 0 16 12" orient="auto" markerUnits="userSpaceOnUse" stroke-dasharray="0,0"><path id="SvgjsPath2093" d="M0,2 L14,6 L0,11 L0,2" fill="#323232" stroke="#323232" stroke-width="2"></path></marker><marker id="SvgjsMarker2102" markerWidth="16" markerHeight="12" refX="16" refY="6" viewBox="0 0 16 12" orient="auto" markerUnits="userSpaceOnUse" stroke-dasharray="0,0"><path id="SvgjsPath2103" d="M0,2 L14,6 L0,11 L0,2" fill="#323232" stroke="#323232" stroke-width="2"></path></marker><marker id="SvgjsMarker2112" markerWidth="16" markerHeight="12" refX="16" refY="6" viewBox="0 0 16 12" orient="auto" markerUnits="userSpaceOnUse" stroke-dasharray="0,0"><path id="SvgjsPath2113" d="M0,2 L14,6 L0,11 L0,2" fill="#323232" stroke="#323232" stroke-width="2"></path></marker><marker id="SvgjsMarker2122" markerWidth="16" markerHeight="12" refX="16" refY="6" viewBox="0 0 16 12" orient="auto" markerUnits="userSpaceOnUse" stroke-dasharray="0,0"><path id="SvgjsPath2123" d="M0,2 L14,6 L0,11 L0,2" fill="#323232" stroke="#323232" stroke-width="2"></path></marker><marker id="SvgjsMarker2134" markerWidth="16" markerHeight="12" refX="16" refY="6" viewBox="0 0 16 12" orient="auto" markerUnits="userSpaceOnUse" stroke-dasharray="0,0"><path id="SvgjsPath2135" d="M0,2 L14,6 L0,11 L0,2" fill="#323232" stroke="#323232" stroke-width="2"></path></marker><marker id="SvgjsMarker2146" markerWidth="16" markerHeight="12" refX="16" refY="6" viewBox="0 0 16 12" orient="auto" markerUnits="userSpaceOnUse" stroke-dasharray="0,0"><path id="SvgjsPath2147" d="M0,2 L14,6 L0,11 L0,2" fill="#323232" stroke="#323232" stroke-width="2"></path></marker><marker id="SvgjsMarker2154" markerWidth="16" markerHeight="12" refX="16" refY="6" viewBox="0 0 16 12" orient="auto" markerUnits="userSpaceOnUse" stroke-dasharray="0,0"><path id="SvgjsPath2155" d="M0,2 L14,6 L0,11 L0,2" fill="#323232" stroke="#323232" stroke-width="2"></path></marker><marker id="SvgjsMarker2170" markerWidth="16" markerHeight="12" refX="16" refY="6" viewBox="0 0 16 12" orient="auto" markerUnits="userSpaceOnUse" stroke-dasharray="0,0"><path id="SvgjsPath2171" d="M0,2 L14,6 L0,11 L0,2" fill="#323232" stroke="#323232" stroke-width="2"></path></marker><marker id="SvgjsMarker2174" markerWidth="16" markerHeight="12" refX="16" refY="6" viewBox="0 0 16 12" orient="auto" markerUnits="userSpaceOnUse" stroke-dasharray="0,0"><path id="SvgjsPath2175" d="M0,2 L14,6 L0,11 L0,2" fill="#323232" stroke="#323232" stroke-width="2"></path></marker><marker id="SvgjsMarker2178" markerWidth="16" markerHeight="12" refX="16" refY="6" viewBox="0 0 16 12" orient="auto" markerUnits="userSpaceOnUse" stroke-dasharray="0,0"><path id="SvgjsPath2179" d="M0,2 L14,6 L0,11 L0,2" fill="#323232" stroke="#323232" stroke-width="2"></path></marker><marker id="SvgjsMarker2196" markerWidth="16" markerHeight="12" refX="16" refY="6" viewBox="0 0 16 12" orient="auto" markerUnits="userSpaceOnUse" stroke-dasharray="0,0"><path id="SvgjsPath2197" d="M0,2 L14,6 L0,11 L0,2" fill="#323232" stroke="#323232" stroke-width="2"></path></marker><marker id="SvgjsMarker2210" markerWidth="16" markerHeight="12" refX="16" refY="6" viewBox="0 0 16 12" orient="auto" markerUnits="userSpaceOnUse" stroke-dasharray="0,0"><path id="SvgjsPath2211" d="M0,2 L14,6 L0,11 L0,2" fill="#323232" stroke="#323232" stroke-width="2"></path></marker><marker id="SvgjsMarker2220" markerWidth="16" markerHeight="12" refX="16" refY="6" viewBox="0 0 16 12" orient="auto" markerUnits="userSpaceOnUse" stroke-dasharray="0,0"><path id="SvgjsPath2221" d="M0,2 L14,6 L0,11 L0,2" fill="#323232" stroke="#323232" stroke-width="2"></path></marker><marker id="SvgjsMarker2230" markerWidth="16" markerHeight="12" refX="16" refY="6" viewBox="0 0 16 12" orient="auto" markerUnits="userSpaceOnUse" stroke-dasharray="0,0"><path id="SvgjsPath2231" d="M0,2 L14,6 L0,11 L0,2" fill="#323232" stroke="#323232" stroke-width="2"></path></marker><marker id="SvgjsMarker2240" markerWidth="16" markerHeight="12" refX="16" refY="6" viewBox="0 0 16 12" orient="auto" markerUnits="userSpaceOnUse" stroke-dasharray="0,0"><path id="SvgjsPath2241" d="M0,2 L14,6 L0,11 L0,2" fill="#323232" stroke="#323232" stroke-width="2"></path></marker><marker id="SvgjsMarker2256" markerWidth="16" markerHeight="12" refX="16" refY="6" viewBox="0 0 16 12" orient="auto" markerUnits="userSpaceOnUse" stroke-dasharray="0,0"><path id="SvgjsPath2257" d="M0,2 L14,6 L0,11 L0,2" fill="#323232" stroke="#323232" stroke-width="2"></path></marker><marker id="SvgjsMarker2266" markerWidth="16" markerHeight="12" refX="16" refY="6" viewBox="0 0 16 12" orient="auto" markerUnits="userSpaceOnUse" stroke-dasharray="0,0"><path id="SvgjsPath2267" d="M0,2 L14,6 L0,11 L0,2" fill="#323232" stroke="#323232" stroke-width="2"></path></marker><marker id="SvgjsMarker2270" markerWidth="16" markerHeight="12" refX="16" refY="6" viewBox="0 0 16 12" orient="auto" markerUnits="userSpaceOnUse" stroke-dasharray="0,0"><path id="SvgjsPath2271" d="M0,2 L14,6 L0,11 L0,2" fill="#323232" stroke="#323232" stroke-width="2"></path></marker><marker id="SvgjsMarker2274" markerWidth="16" markerHeight="12" refX="16" refY="6" viewBox="0 0 16 12" orient="auto" markerUnits="userSpaceOnUse" stroke-dasharray="0,0"><path id="SvgjsPath2275" d="M0,2 L14,6 L0,11 L0,2" fill="#323232" stroke="#323232" stroke-width="2"></path></marker><marker id="SvgjsMarker2278" markerWidth="16" markerHeight="12" refX="16" refY="6" viewBox="0 0 16 12" orient="auto" markerUnits="userSpaceOnUse" stroke-dasharray="0,0"><path id="SvgjsPath2279" d="M0,2 L14,6 L0,11 L0,2" fill="#323232" stroke="#323232" stroke-width="2"></path></marker><marker id="SvgjsMarker2296" markerWidth="16" markerHeight="12" refX="16" refY="6" viewBox="0 0 16 12" orient="auto" markerUnits="userSpaceOnUse" stroke-dasharray="0,0"><path id="SvgjsPath2297" d="M0,2 L14,6 L0,11 L0,2" fill="#323232" stroke="#323232" stroke-width="2"></path></marker><marker id="SvgjsMarker2306" markerWidth="16" markerHeight="12" refX="16" refY="6" viewBox="0 0 16 12" orient="auto" markerUnits="userSpaceOnUse" stroke-dasharray="0,0"><path id="SvgjsPath2307" d="M0,2 L14,6 L0,11 L0,2" fill="#323232" stroke="#323232" stroke-width="2"></path></marker><marker id="SvgjsMarker2322" markerWidth="16" markerHeight="12" refX="16" refY="6" viewBox="0 0 16 12" orient="auto" markerUnits="userSpaceOnUse" stroke-dasharray="0,0"><path id="SvgjsPath2323" d="M0,2 L14,6 L0,11 L0,2" fill="#323232" stroke="#323232" stroke-width="2"></path></marker><marker id="SvgjsMarker2332" markerWidth="16" markerHeight="12" refX="16" refY="6" viewBox="0 0 16 12" orient="auto" markerUnits="userSpaceOnUse" stroke-dasharray="0,0"><path id="SvgjsPath2333" d="M0,2 L14,6 L0,11 L0,2" fill="#323232" stroke="#323232" stroke-width="2"></path></marker><marker id="SvgjsMarker2336" markerWidth="16" markerHeight="12" refX="16" refY="6" viewBox="0 0 16 12" orient="auto" markerUnits="userSpaceOnUse" stroke-dasharray="0,0"><path id="SvgjsPath2337" d="M0,2 L14,6 L0,11 L0,2" fill="#323232" stroke="#323232" stroke-width="2"></path></marker><marker id="SvgjsMarker2340" markerWidth="16" markerHeight="12" refX="16" refY="6" viewBox="0 0 16 12" orient="auto" markerUnits="userSpaceOnUse" stroke-dasharray="0,0"><path id="SvgjsPath2341" d="M0,2 L14,6 L0,11 L0,2" fill="#323232" stroke="#323232" stroke-width="2"></path></marker><marker id="SvgjsMarker2344" markerWidth="16" markerHeight="12" refX="16" refY="6" viewBox="0 0 16 12" orient="auto" markerUnits="userSpaceOnUse" stroke-dasharray="0,0"><path id="SvgjsPath2345" d="M0,2 L14,6 L0,11 L0,2" fill="#323232" stroke="#323232" stroke-width="2"></path></marker><marker id="SvgjsMarker2360" markerWidth="16" markerHeight="12" refX="16" refY="6" viewBox="0 0 16 12" orient="auto" markerUnits="userSpaceOnUse" stroke-dasharray="0,0"><path id="SvgjsPath2361" d="M0,2 L14,6 L0,11 L0,2" fill="#323232" stroke="#323232" stroke-width="2"></path></marker><marker id="SvgjsMarker2364" markerWidth="16" markerHeight="12" refX="16" refY="6" viewBox="0 0 16 12" orient="auto" markerUnits="userSpaceOnUse" stroke-dasharray="0,0"><path id="SvgjsPath2365" d="M0,2 L14,6 L0,11 L0,2" fill="#323232" stroke="#323232" stroke-width="2"></path></marker><marker id="SvgjsMarker2368" markerWidth="16" markerHeight="12" refX="16" refY="6" viewBox="0 0 16 12" orient="auto" markerUnits="userSpaceOnUse" stroke-dasharray="0,0"><path id="SvgjsPath2369" d="M0,2 L14,6 L0,11 L0,2" fill="#323232" stroke="#323232" stroke-width="2"></path></marker><marker id="SvgjsMarker2372" markerWidth="16" markerHeight="12" refX="16" refY="6" viewBox="0 0 16 12" orient="auto" markerUnits="userSpaceOnUse" stroke-dasharray="0,0"><path id="SvgjsPath2373" d="M0,2 L14,6 L0,11 L0,2" fill="#323232" stroke="#323232" stroke-width="2"></path></marker><marker id="SvgjsMarker2382" markerWidth="16" markerHeight="12" refX="16" refY="6" viewBox="0 0 16 12" orient="auto" markerUnits="userSpaceOnUse" stroke-dasharray="0,0"><path id="SvgjsPath2383" d="M0,2 L14,6 L0,11 L0,2" fill="#323232" stroke="#323232" stroke-width="2"></path></marker><marker id="SvgjsMarker2386" markerWidth="16" markerHeight="12" refX="16" refY="6" viewBox="0 0 16 12" orient="auto" markerUnits="userSpaceOnUse" stroke-dasharray="0,0"><path id="SvgjsPath2387" d="M0,2 L14,6 L0,11 L0,2" fill="#323232" stroke="#323232" stroke-width="2"></path></marker><marker id="SvgjsMarker2396" markerWidth="16" markerHeight="12" refX="16" refY="6" viewBox="0 0 16 12" orient="auto" markerUnits="userSpaceOnUse" stroke-dasharray="0,0"><path id="SvgjsPath2397" d="M0,2 L14,6 L0,11 L0,2" fill="#323232" stroke="#323232" stroke-width="2"></path></marker></defs><g id="SvgjsG2058" transform="translate(80.1875,360.84131736526945)"><path id="SvgjsPath2059" d="M 0 0L 158.875 0L 158.875 52L 0 52Z" stroke="rgba(50,50,50,1)" stroke-width="2" fill-opacity="1" fill="#ffffed"></path><g id="SvgjsG2060"><text id="SvgjsText2061" font-family="Arial" text-anchor="middle" font-size="13px" width="139px" fill="#323232" font-weight="400" align="middle" anchor="middle" family="Arial" size="13px" weight="400" font-style="" opacity="1" y="8.05" transform="rotate(0)"><tspan id="SvgjsTspan2062" dy="16" x="79.5"><tspan id="SvgjsTspan2063" style="text-decoration:;">UpdateRankItemTask</tspan></tspan><tspan id="SvgjsTspan2064" dy="16" x="79.5"><tspan id="SvgjsTspan2065" style="text-decoration:;font-size: inherit;">定时每天计算榜单</tspan></tspan></text></g></g><g id="SvgjsG2066" transform="translate(76.625,452.84131736526945)"><path id="SvgjsPath2067" d="M 0 0L 166 0L 166 37L 0 37Z" stroke="rgba(50,50,50,1)" stroke-width="2" fill-opacity="1" fill="#ffffed"></path><g id="SvgjsG2068"><text id="SvgjsText2069" font-family="Arial" text-anchor="middle" font-size="13px" width="146px" fill="#323232" font-weight="400" align="middle" anchor="middle" family="Arial" size="13px" weight="400" font-style="" opacity="1" y="8.55" transform="rotate(0)"><tspan id="SvgjsTspan2070" dy="16" x="83"><tspan id="SvgjsTspan2071" style="text-decoration:;">更新榜单排行资源信息</tspan></tspan></text></g></g><g id="SvgjsG2072"><path id="SvgjsPath2073" d="M159.625 412.84131736526945L159.625 431.9206586826347L159.625 431.9206586826347L159.625 452.84131736526945" stroke="#323232" stroke-width="2" fill="none" marker-end="url(#SvgjsMarker2074)"></path></g><g id="SvgjsG2076" transform="translate(96.125,1256.8413173652693)"><path id="SvgjsPath2077" d="M 0 0L 127 0L 127 60L 0 60Z" stroke="rgba(50,50,50,1)" stroke-width="2" fill-opacity="1" fill="#ffffed"></path><g id="SvgjsG2078"><text id="SvgjsText2079" font-family="Arial" text-anchor="middle" font-size="13px" width="107px" fill="#323232" font-weight="400" align="middle" anchor="middle" family="Arial" size="13px" weight="400" font-style="" opacity="1" y="12.05" transform="rotate(0)"><tspan id="SvgjsTspan2080" dy="16" x="63.5"><tspan id="SvgjsTspan2081" style="text-decoration:;">更新书籍、节目表 </tspan></tspan><tspan id="SvgjsTspan2082" dy="16" x="63.5"><tspan id="SvgjsTspan2083" style="text-decoration:;">rankInfo、rankId</tspan></tspan></text></g></g><g id="SvgjsG2084" transform="translate(86.625,529.8413173652694)"><path id="SvgjsPath2085" d="M 12.333333333333334 0L 146 0L 133.66666666666666 37L 0 37L 12.333333333333334 0Z" stroke="rgba(50,50,50,1)" stroke-width="2" fill-opacity="1" fill="#ffffed"></path><g id="SvgjsG2086"><text id="SvgjsText2087" font-family="Arial" text-anchor="middle" font-size="13px" width="103px" fill="#323232" font-weight="400" align="middle" anchor="middle" family="Arial" size="13px" weight="400" font-style="" opacity="1" y="8.55" transform="rotate(0)"><tspan id="SvgjsTspan2088" dy="16" x="73.4"><tspan id="SvgjsTspan2089" style="text-decoration:;">t_rankings_item</tspan></tspan></text></g></g><g id="SvgjsG2090"><path id="SvgjsPath2091" d="M159.625 489.84131736526945L159.625 510.34131736526945L159.625 510.34131736526945L159.625 529.8413173652694" stroke="#323232" stroke-width="2" fill="none" marker-end="url(#SvgjsMarker2092)"></path></g><g id="SvgjsG2094" transform="translate(169.625,25)"><path id="SvgjsPath2095" d="M 17.333333333333332 0L 82.66666666666667 0C 105.77777777777777 0 105.77777777777777 52 82.66666666666667 52L 17.333333333333332 52C -5.777777777777778 52 -5.777777777777778 0 17.333333333333332 0Z" stroke="rgba(50,50,50,1)" stroke-width="2" fill-opacity="1" fill="#ffffed"></path><g id="SvgjsG2096"><text id="SvgjsText2097" font-family="Arial" text-anchor="middle" font-size="13px" width="80px" fill="#323232" font-weight="400" align="middle" anchor="middle" family="Arial" size="13px" weight="400" font-style="" opacity="1" y="16.05" transform="rotate(0)"><tspan id="SvgjsTspan2098" dy="16" x="50"><tspan id="SvgjsTspan2099" style="text-decoration:;">开始</tspan></tspan></text></g></g><g id="SvgjsG2100"><path id="SvgjsPath2101" d="M159.625 1316.8413173652693L159.625 1346.8413173652693L159.625 1346.8413173652693L159.625 1376.8413173652693" stroke="#323232" stroke-width="2" fill="none" marker-end="url(#SvgjsMarker2102)"></path></g><g id="SvgjsG2104" transform="translate(63.3125,1376.8413173652693)"><path id="SvgjsPath2105" d="M 14.05289421157689 0L 192.625 0L 178.5721057884231 42.15868263473067L 0 42.15868263473067L 14.05289421157689 0Z" stroke="rgba(50,50,50,1)" stroke-width="2" fill-opacity="1" fill="#ffffed"></path><g id="SvgjsG2106"><text id="SvgjsText2107" font-family="Arial" text-anchor="middle" font-size="13px" width="135px" fill="#323232" font-weight="400" align="middle" anchor="middle" family="Arial" size="13px" weight="400" font-style="" opacity="1" y="11.129341317365334" transform="rotate(0)"><tspan id="SvgjsTspan2108" dy="16" x="96.39375"><tspan id="SvgjsTspan2109" style="text-decoration:;">t_book/t_sns_ablumn</tspan></tspan></text></g></g><g id="SvgjsG2110"><path id="SvgjsPath2111" d="M157.5 566.8413173652694L157.5 589.8413173652694L157.5 589.8413173652694L157.5 610.8413173652694" stroke="#323232" stroke-width="2" fill="none" marker-end="url(#SvgjsMarker2112)"></path></g><g id="SvgjsG2114" transform="translate(107.5,610.8413173652694)"><path id="SvgjsPath2115" d="M 0 0L 100 0L 100 37L 0 37Z" stroke="rgba(50,50,50,1)" stroke-width="2" fill-opacity="1" fill="#ffffed"></path><g id="SvgjsG2116"><text id="SvgjsText2117" font-family="Arial" text-anchor="middle" font-size="13px" width="80px" fill="#323232" font-weight="400" align="middle" anchor="middle" family="Arial" size="13px" weight="400" font-style="" opacity="1" y="8.55" transform="rotate(0)"><tspan id="SvgjsTspan2118" dy="16" x="50"><tspan id="SvgjsTspan2119" style="text-decoration:;">通知更新</tspan></tspan></text></g></g><g id="SvgjsG2120"><path id="SvgjsPath2121" d="M159.625 647.8413173652694L159.625 666.0913173652694L159.625 666.0913173652694L159.625 683.5" stroke="#323232" stroke-width="2" fill="none" marker-end="url(#SvgjsMarker2122)"></path></g><g id="SvgjsG2124" transform="translate(86.625,1001.8413173652693)"><path id="SvgjsPath2125" d="M 0 0L 146 0L 146 52L 0 52Z" stroke="rgba(50,50,50,1)" stroke-width="2" fill-opacity="1" fill="#ffffed"></path><g id="SvgjsG2126"><text id="SvgjsText2127" font-family="Arial" text-anchor="middle" font-size="13px" width="126px" fill="#323232" font-weight="400" align="middle" anchor="middle" family="Arial" size="13px" weight="400" font-style="" opacity="1" y="8.05" transform="rotate(0)"><tspan id="SvgjsTspan2128" dy="16" x="73"><tspan id="SvgjsTspan2129" style="text-decoration:;">遍历对比各资源相关</tspan></tspan><tspan id="SvgjsTspan2130" dy="16" x="73"><tspan id="SvgjsTspan2131" style="text-decoration:;">榜单信息展示优先级</tspan></tspan></text></g></g><g id="SvgjsG2132"><path id="SvgjsPath2133" d="M158.8125 1053.8413173652693L158.8125 1075.4206586826344L158.8125 1075.4206586826344L158.8125 1093.8413173652693" stroke="#323232" stroke-width="2" fill="none" marker-end="url(#SvgjsMarker2134)"></path></g><g id="SvgjsG2136" transform="translate(56.3125,1093.8413173652693)"><path id="SvgjsPath2137" d="M 0 54L 102.5 0L 205 54L 102.5 108L 0 54Z" stroke="rgba(50,50,50,1)" stroke-width="2" fill-opacity="1" fill="#ffffed"></path><g id="SvgjsG2138"><text id="SvgjsText2139" font-family="Arial" text-anchor="middle" font-size="13px" width="185px" fill="#323232" font-weight="400" align="middle" anchor="middle" family="Arial" size="13px" weight="400" font-style="" opacity="1" y="36.05" transform="rotate(0)"><tspan id="SvgjsTspan2140" dy="16" x="102.5"><tspan id="SvgjsTspan2141" style="text-decoration:;">更新的榜单创建时间比当前展示</tspan></tspan><tspan id="SvgjsTspan2142" dy="16" x="102.5"><tspan id="SvgjsTspan2143" style="text-decoration:;">榜单信息的榜单更新？</tspan></tspan></text></g></g><g id="SvgjsG2144"><path id="SvgjsPath2145" d="M159.625 1201.8413173652693L159.625 1229.3413173652693L159.625 1229.3413173652693L159.625 1256.8413173652693" stroke="#323232" stroke-width="2" fill="none" marker-end="url(#SvgjsMarker2146)"></path><rect id="SvgjsRect2148" width="13" height="16" x="153.125" y="1221.3413173652693" fill="#ffffff"></rect><text id="SvgjsText2149" font-family="Arial" text-anchor="middle" font-size="13px" width="13px" fill="#323232" font-weight="400" align="top" anchor="middle" family="Arial" size="13px" weight="400" font-style="" opacity="1" y="1219.3913173652693" transform="rotate(0)"><tspan id="SvgjsTspan2150" dy="16" x="159.625"><tspan id="SvgjsTspan2151" style="text-decoration:;">是</tspan></tspan></text></g><g id="SvgjsG2152"><path id="SvgjsPath2153" d="M219.625 77L219.625 115.5L157.625 115.5L157.625 157.5" stroke="#323232" stroke-width="2" fill="none" marker-end="url(#SvgjsMarker2154)"></path></g><g id="SvgjsG2156" transform="translate(101.625,157.5)"><path id="SvgjsPath2157" d="M 0 0L 112 0L 112 37L 0 37Z" stroke="rgba(50,50,50,1)" stroke-width="2" fill-opacity="1" fill="#ffffed"></path><g id="SvgjsG2158"><text id="SvgjsText2159" font-family="Arial" text-anchor="middle" font-size="13px" width="92px" fill="#323232" font-weight="400" align="middle" anchor="middle" family="Arial" size="13px" weight="400" font-style="" opacity="1" y="8.55" transform="rotate(0)"><tspan id="SvgjsTspan2160" dy="16" x="56"><tspan id="SvgjsTspan2161" style="text-decoration:;">新增/上线榜单</tspan></tspan></text></g></g><g id="SvgjsG2162" transform="translate(304.875,157.5)"><path id="SvgjsPath2163" d="M 0 0L 77.5 0L 77.5 37L 0 37Z" stroke="rgba(50,50,50,1)" stroke-width="2" fill-opacity="1" fill="#ffffed"></path><g id="SvgjsG2164"><text id="SvgjsText2165" font-family="Arial" text-anchor="middle" font-size="13px" width="58px" fill="#323232" font-weight="400" align="middle" anchor="middle" family="Arial" size="13px" weight="400" font-style="" opacity="1" y="8.55" transform="rotate(0)"><tspan id="SvgjsTspan2166" dy="16" x="39"><tspan id="SvgjsTspan2167" style="text-decoration:;">下线榜单</tspan></tspan></text></g></g><g id="SvgjsG2168"><path id="SvgjsPath2169" d="M219.625 77L219.625 116.25L343.625 116.25L343.625 157.5" stroke="#323232" stroke-width="2" fill="none" marker-end="url(#SvgjsMarker2170)"></path></g><g id="SvgjsG2172"><path id="SvgjsPath2173" d="M157.5 194.5L157.5 238.92065868263472L157.5 238.92065868263472L157.5 284.84131736526945" stroke="#323232" stroke-width="2" fill="none" marker-end="url(#SvgjsMarker2174)"></path></g><g id="SvgjsG2176"><path id="SvgjsPath2177" d="M343.625 194.5L343.625 216.17065868263472L343.625 216.17065868263472L343.625 238.5" stroke="#323232" stroke-width="2" fill="none" marker-end="url(#SvgjsMarker2178)"></path></g><g id="SvgjsG2180" transform="translate(425.875,985.8413173652694)"><path id="SvgjsPath2181" d="M 0 0L 100 0L 100 37L 0 37Z" stroke="rgba(50,50,50,1)" stroke-width="2" fill-opacity="1" fill="#ffffed"></path><g id="SvgjsG2182"><text id="SvgjsText2183" font-family="Arial" text-anchor="middle" font-size="13px" width="80px" fill="#323232" font-weight="400" align="middle" anchor="middle" family="Arial" size="13px" weight="400" font-style="" opacity="1" y="8.55" transform="rotate(0)"><tspan id="SvgjsTspan2184" dy="16" x="50"><tspan id="SvgjsTspan2185" style="text-decoration:;">清空相关字段</tspan></tspan></text></g></g><g id="SvgjsG2186" transform="translate(379.875,789.5)"><path id="SvgjsPath2187" d="M 0 64L 90.5 0L 181 64L 90.5 128L 0 64Z" stroke="rgba(50,50,50,1)" stroke-width="2" fill-opacity="1" fill="#ffffed"></path><g id="SvgjsG2188"><text id="SvgjsText2189" font-family="Arial" text-anchor="middle" font-size="13px" width="161px" fill="#323232" font-weight="400" align="middle" anchor="middle" family="Arial" size="13px" weight="400" font-style="" opacity="1" y="46.05" transform="rotate(0)"><tspan id="SvgjsTspan2190" dy="16" x="90.5"><tspan id="SvgjsTspan2191" style="text-decoration:;">下线的榜单为当前资源展示</tspan></tspan><tspan id="SvgjsTspan2192" dy="16" x="90.5"><tspan id="SvgjsTspan2193" style="text-decoration:;">榜单信息的榜单？</tspan></tspan></text></g></g><g id="SvgjsG2194"><path id="SvgjsPath2195" d="M475.875 917.5L475.875 951.6706586826347L475.875 951.6706586826347L475.875 985.8413173652694" stroke="#323232" stroke-width="2" fill="none" marker-end="url(#SvgjsMarker2196)"></path><rect id="SvgjsRect2198" width="13" height="16" x="469.375" y="943.6706586826347" fill="#ffffff"></rect><text id="SvgjsText2199" font-family="Arial" text-anchor="middle" font-size="13px" width="13px" fill="#323232" font-weight="400" align="top" anchor="middle" family="Arial" size="13px" weight="400" font-style="" opacity="1" y="941.7206586826346" transform="rotate(0)"><tspan id="SvgjsTspan2200" dy="16" x="475.875"><tspan id="SvgjsTspan2201" style="text-decoration:;">是</tspan></tspan></text></g><g id="SvgjsG2202" transform="translate(92,284.84131736526945)"><path id="SvgjsPath2203" d="M 12.333333333333334 0L 131 0L 118.66666666666667 37L 0 37L 12.333333333333334 0Z" stroke="rgba(50,50,50,1)" stroke-width="2" fill-opacity="1" fill="#ffffed"></path><g id="SvgjsG2204"><text id="SvgjsText2205" font-family="Arial" text-anchor="middle" font-size="13px" width="92px" fill="#323232" font-weight="400" align="middle" anchor="middle" family="Arial" size="13px" weight="400" font-style="" opacity="1" y="8.55" transform="rotate(0)"><tspan id="SvgjsTspan2206" dy="16" x="65.65"><tspan id="SvgjsTspan2207" style="text-decoration:;">t_rankings</tspan></tspan></text></g></g><g id="SvgjsG2208"><path id="SvgjsPath2209" d="M159.625 321.84131736526945L159.625 342.34131736526945L159.625 342.34131736526945L159.625 360.84131736526945" stroke="#323232" stroke-width="2" fill="none" marker-end="url(#SvgjsMarker2210)"></path></g><g id="SvgjsG2212" transform="translate(74.125,683.5)"><path id="SvgjsPath2213" d="M 0 0L 171 0L 171 37L 0 37Z" stroke="rgba(50,50,50,1)" stroke-width="2" fill-opacity="1" fill="#ffffed"></path><g id="SvgjsG2214"><text id="SvgjsText2215" font-family="Arial" text-anchor="middle" font-size="13px" width="151px" fill="#323232" font-weight="400" align="middle" anchor="middle" family="Arial" size="13px" weight="400" font-style="" opacity="1" y="8.55" transform="rotate(0)"><tspan id="SvgjsTspan2216" dy="16" x="85.5"><tspan id="SvgjsTspan2217" style="text-decoration:;">读取榜单信息资源展示数</tspan></tspan></text></g></g><g id="SvgjsG2218"><path id="SvgjsPath2219" d="M219.625 77L219.625 115.5L755.625 115.5L755.625 154" stroke="#323232" stroke-width="2" fill="none" marker-end="url(#SvgjsMarker2220)"></path></g><g id="SvgjsG2222" transform="translate(665.125,154)"><path id="SvgjsPath2223" d="M 0 0L 181 0L 181 37L 0 37Z" stroke="rgba(50,50,50,1)" stroke-width="2" fill-opacity="1" fill="#ffffed"></path><g id="SvgjsG2224"><text id="SvgjsText2225" font-family="Arial" text-anchor="middle" font-size="13px" width="161px" fill="#323232" font-weight="400" align="middle" anchor="middle" family="Arial" size="13px" weight="400" font-style="" opacity="1" y="8.55" transform="rotate(0)"><tspan id="SvgjsTspan2226" dy="16" x="90.5"><tspan id="SvgjsTspan2227" style="text-decoration:;">修改榜单信息资源展示数</tspan></tspan></text></g></g><g id="SvgjsG2228"><path id="SvgjsPath2229" d="M158.625 791.3413173652694L158.625 835.9206586826347L285.625 835.9206586826347L285.625 880.5" stroke="#323232" stroke-width="2" fill="none" marker-end="url(#SvgjsMarker2230)"></path></g><g id="SvgjsG2232" transform="translate(229.625,880.5)"><path id="SvgjsPath2233" d="M 0 0L 112 0L 112 37L 0 37Z" stroke="rgba(50,50,50,1)" stroke-width="2" fill-opacity="1" fill="#ffffed"></path><g id="SvgjsG2234"><text id="SvgjsText2235" font-family="Arial" text-anchor="middle" font-size="13px" width="92px" fill="#323232" font-weight="400" align="middle" anchor="middle" family="Arial" size="13px" weight="400" font-style="" opacity="1" y="8.55" transform="rotate(0)"><tspan id="SvgjsTspan2236" dy="16" x="56"><tspan id="SvgjsTspan2237" style="text-decoration:;">非模块化列表</tspan></tspan></text></g></g><g id="SvgjsG2238"><path id="SvgjsPath2239" d="M159 791.3413173652694L159 835.9206586826347L159 835.9206586826347L159 880.5" stroke="#323232" stroke-width="2" fill="none" marker-end="url(#SvgjsMarker2240)"></path></g><g id="SvgjsG2242" transform="translate(112.5,880.5)"><path id="SvgjsPath2243" d="M 0 0L 93 0L 93 37L 0 37Z" stroke="rgba(50,50,50,1)" stroke-width="2" fill-opacity="1" fill="#ffffed"></path><g id="SvgjsG2244"><text id="SvgjsText2245" font-family="Arial" text-anchor="middle" font-size="13px" width="73px" fill="#323232" font-weight="400" align="middle" anchor="middle" family="Arial" size="13px" weight="400" font-style="" opacity="1" y="8.55" transform="rotate(0)"><tspan id="SvgjsTspan2246" dy="16" x="46.5"><tspan id="SvgjsTspan2247" style="text-decoration:;">模块化列表</tspan></tspan></text></g></g><g id="SvgjsG2248" transform="translate(93.125,754.3413173652694)"><path id="SvgjsPath2249" d="M 12.333333333333334 0L 131 0L 118.66666666666667 37L 0 37L 12.333333333333334 0Z" stroke="rgba(50,50,50,1)" stroke-width="2" fill-opacity="1" fill="#ffffed"></path><g id="SvgjsG2250"><text id="SvgjsText2251" font-family="Arial" text-anchor="middle" font-size="13px" width="92px" fill="#323232" font-weight="400" align="middle" anchor="middle" family="Arial" size="13px" weight="400" font-style="" opacity="1" y="8.55" transform="rotate(0)"><tspan id="SvgjsTspan2252" dy="16" x="65.65"><tspan id="SvgjsTspan2253" style="text-decoration:;">t_rankings</tspan></tspan></text></g></g><g id="SvgjsG2254"><path id="SvgjsPath2255" d="M158.625 791.3413173652694L158.625 835.9206586826347L60.37765624999997 835.9206586826347L60.37765624999997 880.5" stroke="#323232" stroke-width="2" fill="none" marker-end="url(#SvgjsMarker2256)"></path></g><g id="SvgjsG2258" transform="translate(25,880.5)"><path id="SvgjsPath2259" d="M 0 0L 72 0L 72 37L 0 37Z" stroke="rgba(50,50,50,1)" stroke-width="2" fill-opacity="1" fill="#ffffed"></path><g id="SvgjsG2260"><text id="SvgjsText2261" font-family="Arial" text-anchor="middle" font-size="13px" width="52px" fill="#323232" font-weight="400" align="middle" anchor="middle" family="Arial" size="13px" weight="400" font-style="" opacity="1" y="8.55" transform="rotate(0)"><tspan id="SvgjsTspan2262" dy="16" x="36"><tspan id="SvgjsTspan2263" style="text-decoration:;">详情页</tspan></tspan></text></g></g><g id="SvgjsG2264"><path id="SvgjsPath2265" d="M61 917.5L61 958.4206586826347L159.625 958.4206586826347L159.625 1001.8413173652693" stroke="#323232" stroke-width="2" fill="none" marker-end="url(#SvgjsMarker2266)"></path></g><g id="SvgjsG2268"><path id="SvgjsPath2269" d="M159.625 917.5L159.625 958.4206586826347L159.625 958.4206586826347L159.625 1001.8413173652693" stroke="#323232" stroke-width="2" fill="none" marker-end="url(#SvgjsMarker2270)"></path></g><g id="SvgjsG2272"><path id="SvgjsPath2273" d="M285.625 917.5L285.625 958.4206586826347L159.625 958.4206586826347L159.625 1001.8413173652693" stroke="#323232" stroke-width="2" fill="none" marker-end="url(#SvgjsMarker2274)"></path></g><g id="SvgjsG2276"><path id="SvgjsPath2277" d="M158.625 720.5L158.625 737.8413173652694L158.625 737.8413173652694L158.625 754.3413173652694" stroke="#323232" stroke-width="2" fill="none" marker-end="url(#SvgjsMarker2278)"></path></g><g id="SvgjsG2280" transform="translate(311.625,676)"><path id="SvgjsPath2281" d="M 0 0L 146 0L 146 52L 0 52Z" stroke="rgba(50,50,50,1)" stroke-width="2" fill-opacity="1" fill="#ffffed"></path><g id="SvgjsG2282"><text id="SvgjsText2283" font-family="Arial" text-anchor="middle" font-size="13px" width="126px" fill="#323232" font-weight="400" align="middle" anchor="middle" family="Arial" size="13px" weight="400" font-style="" opacity="1" y="8.05" transform="rotate(0)"><tspan id="SvgjsTspan2284" dy="16" x="73"><tspan id="SvgjsTspan2285" style="text-decoration:;">遍历对比各资源相关</tspan></tspan><tspan id="SvgjsTspan2286" dy="16" x="73"><tspan id="SvgjsTspan2287" style="text-decoration:;">榜单信息展示优先级</tspan></tspan></text></g></g><g id="SvgjsG2288" transform="translate(299.125,356.84131736526956)"><path id="SvgjsPath2289" d="M 0 0L 171 0L 171 37L 0 37Z" stroke="rgba(50,50,50,1)" stroke-width="2" fill-opacity="1" fill="#ffffed"></path><g id="SvgjsG2290"><text id="SvgjsText2291" font-family="Arial" text-anchor="middle" font-size="13px" width="151px" fill="#323232" font-weight="400" align="middle" anchor="middle" family="Arial" size="13px" weight="400" font-style="" opacity="1" y="8.55" transform="rotate(0)"><tspan id="SvgjsTspan2292" dy="16" x="85.5"><tspan id="SvgjsTspan2293" style="text-decoration:;">读取榜单信息资源展示数</tspan></tspan></text></g></g><g id="SvgjsG2294"><path id="SvgjsPath2295" d="M384.625 463.84131736526956L384.625 508.4206586826348L510.25 508.4206586826348L510.25 553.5" stroke="#323232" stroke-width="2" fill="none" marker-end="url(#SvgjsMarker2296)"></path></g><g id="SvgjsG2298" transform="translate(454.25,553.5)"><path id="SvgjsPath2299" d="M 0 0L 112 0L 112 37L 0 37Z" stroke="rgba(50,50,50,1)" stroke-width="2" fill-opacity="1" fill="#ffffed"></path><g id="SvgjsG2300"><text id="SvgjsText2301" font-family="Arial" text-anchor="middle" font-size="13px" width="92px" fill="#323232" font-weight="400" align="middle" anchor="middle" family="Arial" size="13px" weight="400" font-style="" opacity="1" y="8.55" transform="rotate(0)"><tspan id="SvgjsTspan2302" dy="16" x="56"><tspan id="SvgjsTspan2303" style="text-decoration:;">非模块化列表</tspan></tspan></text></g></g><g id="SvgjsG2304"><path id="SvgjsPath2305" d="M384.625 463.84131736526956L384.625 508.4206586826348L384.625 508.4206586826348L384.625 553.5" stroke="#323232" stroke-width="2" fill="none" marker-end="url(#SvgjsMarker2306)"></path></g><g id="SvgjsG2308" transform="translate(338.125,553.5)"><path id="SvgjsPath2309" d="M 0 0L 93 0L 93 37L 0 37Z" stroke="rgba(50,50,50,1)" stroke-width="2" fill-opacity="1" fill="#ffffed"></path><g id="SvgjsG2310"><text id="SvgjsText2311" font-family="Arial" text-anchor="middle" font-size="13px" width="73px" fill="#323232" font-weight="400" align="middle" anchor="middle" family="Arial" size="13px" weight="400" font-style="" opacity="1" y="8.55" transform="rotate(0)"><tspan id="SvgjsTspan2312" dy="16" x="46.5"><tspan id="SvgjsTspan2313" style="text-decoration:;">模块化列表</tspan></tspan></text></g></g><g id="SvgjsG2314" transform="translate(319.125,426.84131736526956)"><path id="SvgjsPath2315" d="M 12.333333333333334 0L 131 0L 118.66666666666667 37L 0 37L 12.333333333333334 0Z" stroke="rgba(50,50,50,1)" stroke-width="2" fill-opacity="1" fill="#ffffed"></path><g id="SvgjsG2316"><text id="SvgjsText2317" font-family="Arial" text-anchor="middle" font-size="13px" width="92px" fill="#323232" font-weight="400" align="middle" anchor="middle" family="Arial" size="13px" weight="400" font-style="" opacity="1" y="8.55" transform="rotate(0)"><tspan id="SvgjsTspan2318" dy="16" x="65.65"><tspan id="SvgjsTspan2319" style="text-decoration:;">t_rankings</tspan></tspan></text></g></g><g id="SvgjsG2320"><path id="SvgjsPath2321" d="M384.625 463.84131736526956L384.625 508.4206586826348L285.00265625 508.4206586826348L285.00265625 553.5" stroke="#323232" stroke-width="2" fill="none" marker-end="url(#SvgjsMarker2322)"></path></g><g id="SvgjsG2324" transform="translate(249.625,553.5)"><path id="SvgjsPath2325" d="M 0 0L 72 0L 72 37L 0 37Z" stroke="rgba(50,50,50,1)" stroke-width="2" fill-opacity="1" fill="#ffffed"></path><g id="SvgjsG2326"><text id="SvgjsText2327" font-family="Arial" text-anchor="middle" font-size="13px" width="52px" fill="#323232" font-weight="400" align="middle" anchor="middle" family="Arial" size="13px" weight="400" font-style="" opacity="1" y="8.55" transform="rotate(0)"><tspan id="SvgjsTspan2328" dy="16" x="36"><tspan id="SvgjsTspan2329" style="text-decoration:;">详情页</tspan></tspan></text></g></g><g id="SvgjsG2330"><path id="SvgjsPath2331" d="M285.625 590.5L285.625 630.9206586826348L384.625 630.9206586826348L384.625 676" stroke="#323232" stroke-width="2" fill="none" marker-end="url(#SvgjsMarker2332)"></path></g><g id="SvgjsG2334"><path id="SvgjsPath2335" d="M384.625 590.5L384.625 630.9206586826348L384.625 630.9206586826348L384.625 676" stroke="#323232" stroke-width="2" fill="none" marker-end="url(#SvgjsMarker2336)"></path></g><g id="SvgjsG2338"><path id="SvgjsPath2339" d="M510.25 590.5L510.25 630.9206586826348L384.625 630.9206586826348L384.625 676" stroke="#323232" stroke-width="2" fill="none" marker-end="url(#SvgjsMarker2340)"></path></g><g id="SvgjsG2342"><path id="SvgjsPath2343" d="M384.625 393.84131736526956L384.625 410.34131736526956L384.625 410.34131736526956L384.625 426.84131736526956" stroke="#323232" stroke-width="2" fill="none" marker-end="url(#SvgjsMarker2344)"></path></g><g id="SvgjsG2346" transform="translate(278.125,238.5)"><path id="SvgjsPath2347" d="M 12.333333333333334 0L 131 0L 118.66666666666667 37L 0 37L 12.333333333333334 0Z" stroke="rgba(50,50,50,1)" stroke-width="2" fill-opacity="1" fill="#ffffed"></path><g id="SvgjsG2348"><text id="SvgjsText2349" font-family="Arial" text-anchor="middle" font-size="13px" width="92px" fill="#323232" font-weight="400" align="middle" anchor="middle" family="Arial" size="13px" weight="400" font-style="" opacity="1" y="8.55" transform="rotate(0)"><tspan id="SvgjsTspan2350" dy="16" x="65.65"><tspan id="SvgjsTspan2351" style="text-decoration:;">t_rankings</tspan></tspan></text></g></g><g id="SvgjsG2352" transform="translate(690.125,234.34131736526945)"><path id="SvgjsPath2353" d="M 12.333333333333334 0L 131 0L 118.66666666666667 37L 0 37L 12.333333333333334 0Z" stroke="rgba(50,50,50,1)" stroke-width="2" fill-opacity="1" fill="#ffffed"></path><g id="SvgjsG2354"><text id="SvgjsText2355" font-family="Arial" text-anchor="middle" font-size="13px" width="92px" fill="#323232" font-weight="400" align="middle" anchor="middle" family="Arial" size="13px" weight="400" font-style="" opacity="1" y="8.55" transform="rotate(0)"><tspan id="SvgjsTspan2356" dy="16" x="65.65"><tspan id="SvgjsTspan2357" style="text-decoration:;">t_rankings</tspan></tspan></text></g></g><g id="SvgjsG2358"><path id="SvgjsPath2359" d="M343.625 275.5L343.625 315.8413173652695L384.625 315.8413173652695L384.625 356.84131736526956" stroke="#323232" stroke-width="2" fill="none" marker-end="url(#SvgjsMarker2360)"></path></g><g id="SvgjsG2362"><path id="SvgjsPath2363" d="M755.625 191L755.625 212.67065868263472L755.625 212.67065868263472L755.625 234.34131736526945" stroke="#323232" stroke-width="2" fill="none" marker-end="url(#SvgjsMarker2364)"></path></g><g id="SvgjsG2366"><path id="SvgjsPath2367" d="M384.625 728L384.625 757.9206586826347L470.375 757.9206586826347L470.375 789.5" stroke="#323232" stroke-width="2" fill="none" marker-end="url(#SvgjsMarker2368)"></path></g><g id="SvgjsG2370"><path id="SvgjsPath2371" d="M219.625 77L219.625 115.5L546.125 115.5L546.125 154" stroke="#323232" stroke-width="2" fill="none" marker-end="url(#SvgjsMarker2372)"></path></g><g id="SvgjsG2374" transform="translate(497.625,154)"><path id="SvgjsPath2375" d="M 0 0L 97 0L 97 44L 0 44Z" stroke="rgba(50,50,50,1)" stroke-width="2" fill-opacity="1" fill="#ffffed"></path><g id="SvgjsG2376"><text id="SvgjsText2377" font-family="Arial" text-anchor="middle" font-size="13px" width="77px" fill="#323232" font-weight="400" align="middle" anchor="middle" family="Arial" size="13px" weight="400" font-style="" opacity="1" y="12.05" transform="rotate(0)"><tspan id="SvgjsTspan2378" dy="16" x="48.5"><tspan id="SvgjsTspan2379" style="text-decoration:;">定时任务</tspan></tspan></text></g></g><g id="SvgjsG2380"><path id="SvgjsPath2381" d="M497.625 176L450.29166666666663 176L450.29166666666663 257L402.9583333333333 257" stroke="#323232" stroke-width="2" fill="none" marker-end="url(#SvgjsMarker2382)"></path></g><g id="SvgjsG2384"><path id="SvgjsPath2385" d="M755.625 271.34131736526945L755.625 293.09131736526945L755.625 293.09131736526945L755.625 314.84131736526945" stroke="#323232" stroke-width="2" fill="none" marker-end="url(#SvgjsMarker2386)"></path></g><g id="SvgjsG2388" transform="translate(709.125,314.84131736526945)"><path id="SvgjsPath2389" d="M 0 0L 93 0L 93 46L 0 46Z" stroke="rgba(50,50,50,1)" stroke-width="2" fill-opacity="1" fill="#ffffed"></path><g id="SvgjsG2390"><text id="SvgjsText2391" font-family="Arial" text-anchor="middle" font-size="13px" width="73px" fill="#323232" font-weight="400" align="middle" anchor="middle" family="Arial" size="13px" weight="400" font-style="" opacity="1" y="13.05" transform="rotate(0)"><tspan id="SvgjsTspan2392" dy="16" x="46.5"><tspan id="SvgjsTspan2393" style="text-decoration:;">……</tspan></tspan></text></g></g><g id="SvgjsG2394"><path id="SvgjsPath2395" d="M475.875 1022.8413173652693L475.875 1040.4206586826347L475.875 1040.4206586826347L475.875 1058" stroke="#323232" stroke-width="2" fill="none" marker-end="url(#SvgjsMarker2396)"></path></g><g id="SvgjsG2398" transform="translate(385.5,1058)"><path id="SvgjsPath2399" d="M 0 0L 180.75 0L 180.75 63L 0 63Z" stroke="rgba(50,50,50,1)" stroke-width="2" fill-opacity="1" fill="#ffffed"></path><g id="SvgjsG2400"><text id="SvgjsText2401" font-family="Arial" text-anchor="middle" font-size="13px" width="161px" fill="#323232" font-weight="400" align="middle" anchor="middle" family="Arial" size="13px" weight="400" font-style="" opacity="1" y="13.55" transform="rotate(0)"><tspan id="SvgjsTspan2402" dy="16" x="90.5"><tspan id="SvgjsTspan2403" style="text-decoration:;">直到下一次榜单更新触发相</tspan></tspan><tspan id="SvgjsTspan2404" dy="16" x="90.5"><tspan id="SvgjsTspan2405" style="text-decoration:;">关逻辑才有新的信息展示</tspan></tspan></text></g></g></svg>